HIERARCHY
ROOT pelvis
{
	OFFSET 0.003123 -0.351407 0.012037
	CHANNELS 6 Xposition Yposition Zposition Zrotation Yrotation Xrotation 
	JOINT left_hip
	{
		OFFSET 0.058189 -0.092763 -0.026001
		CHANNELS 3 Zrotation Yrotation Xrotation
		JOINT left_knee
		{
			OFFSET 0.054695 -0.378753 -0.009396
			CHANNELS 3 Zrotation Yrotation Xrotation
			JOINT left_ankle
			{
				OFFSET -0.043453 -0.403059 -0.031876
				CHANNELS 3 Zrotation Yrotation Xrotation
				JOINT left_foot
				{
					OFFSET 0.047257 -0.057997 0.118216
					CHANNELS 3 Zrotation Yrotation Xrotation
					End Site
					{
						OFFSET 0.000000 0.000000 0.000000
					}
				}
			}
		}
	}
	JOINT right_hip
	{
		OFFSET -0.063267 -0.103908 -0.021250
		CHANNELS 3 Zrotation Yrotation Xrotation
		JOINT right_knee
		{
			OFFSET -0.044210 -0.362380 -0.016824
			CHANNELS 3 Zrotation Yrotation Xrotation
			JOINT right_ankle
			{
				OFFSET 0.015417 -0.410728 -0.020192
				CHANNELS 3 Zrotation Yrotation Xrotation
				JOINT right_foot
				{
					OFFSET -0.038812 -0.058328 0.119049
					CHANNELS 3 Zrotation Yrotation Xrotation
					End Site
					{
						OFFSET 0.000000 0.000000 0.000000
					}
				}
			}
		}
	}
	JOINT spine_1
	{
		OFFSET -0.002763 0.109891 -0.027618
		CHANNELS 3 Zrotation Yrotation Xrotation
		JOINT spine_2
		{
			OFFSET 0.009448 0.131853 -0.005940
			CHANNELS 3 Zrotation Yrotation Xrotation
			JOINT spine_3
			{
				OFFSET -0.011330 0.052235 0.028447
				CHANNELS 3 Zrotation Yrotation Xrotation
				JOINT neck
				{
					OFFSET -0.012164 0.165167 -0.031615
					CHANNELS 3 Zrotation Yrotation Xrotation
					JOINT head
					{
						OFFSET 0.024783 0.160452 0.020737
						CHANNELS 3 Zrotation Yrotation Xrotation
						End Site
						{
							OFFSET 0.000000 0.000000 0.000000
						}
					}
				}
				JOINT left_collar
				{
					OFFSET 0.046364 0.084944 -0.007220
					CHANNELS 3 Zrotation Yrotation Xrotation
					JOINT left_shoulder
					{
						OFFSET 0.119239 0.057728 -0.015461
						CHANNELS 3 Zrotation Yrotation Xrotation
						JOINT left_elbow
						{
							OFFSET 0.254123 -0.072151 -0.042459
							CHANNELS 3 Zrotation Yrotation Xrotation
							JOINT left_wrist
							{
								OFFSET 0.251987 0.023221 -0.002472
								CHANNELS 3 Zrotation Yrotation Xrotation
								JOINT left_index_1
								{
									OFFSET 0.101902 -0.008688 0.019351
									CHANNELS 3 Zrotation Yrotation Xrotation
									JOINT left_index_2
									{
										OFFSET 0.030149 -0.011154 0.001151
										CHANNELS 3 Zrotation Yrotation Xrotation
										JOINT left_index_3
										{
											OFFSET 0.006504 -0.021577 -0.002433
											CHANNELS 3 Zrotation Yrotation Xrotation
											End Site
											{
												OFFSET 0.000000 0.000000 0.000000
											}
										}
									}
								}
								JOINT left_middle_1
								{
									OFFSET 0.109398 -0.006328 -0.003981
									CHANNELS 3 Zrotation Yrotation Xrotation
									JOINT left_middle_2
									{
										OFFSET 0.026472 -0.015218 -0.004641
										CHANNELS 3 Zrotation Yrotation Xrotation
										JOINT left_middle_3
										{
											OFFSET 0.005022 -0.023347 -0.001911
											CHANNELS 3 Zrotation Yrotation Xrotation
											End Site
											{
												OFFSET 0.000000 0.000000 0.000000
											}
										}
									}
								}
								JOINT left_pinky_1
								{
									OFFSET 0.084047 -0.014539 -0.043750
									CHANNELS 3 Zrotation Yrotation Xrotation
									JOINT left_pinky_2
									{
										OFFSET 0.012124 -0.014448 -0.005375
										CHANNELS 3 Zrotation Yrotation Xrotation
										JOINT left_pinky_3
										{
											OFFSET 0.003798 -0.018853 0.000167
											CHANNELS 3 Zrotation Yrotation Xrotation
											End Site
											{
												OFFSET 0.000000 0.000000 0.000000
											}
										}
									}
								}
								JOINT left_ring_1
								{
									OFFSET 0.097444 -0.009268 -0.027345
									CHANNELS 3 Zrotation Yrotation Xrotation
									JOINT left_ring_2
									{
										OFFSET 0.023561 -0.016057 -0.001895
										CHANNELS 3 Zrotation Yrotation Xrotation
										JOINT left_ring_3
										{
											OFFSET 0.004257 -0.023548 0.000814
											CHANNELS 3 Zrotation Yrotation Xrotation
											End Site
											{
												OFFSET 0.000000 0.000000 0.000000
											}
										}
									}
								}
								JOINT left_thumb_1
								{
									OFFSET 0.040636 -0.017977 0.025611
									CHANNELS 3 Zrotation Yrotation Xrotation
									JOINT left_thumb_2
									{
										OFFSET 0.021637 -0.017639 0.011623
										CHANNELS 3 Zrotation Yrotation Xrotation
										JOINT left_thumb_3
										{
											OFFSET 0.024002 -0.008356 0.006548
											CHANNELS 3 Zrotation Yrotation Xrotation
											End Site
											{
												OFFSET 0.000000 0.000000 0.000000
											}
										}
									}
								}
							}
						}
					}
				}
				JOINT right_collar
				{
					OFFSET -0.047695 0.084339 -0.013400
					CHANNELS 3 Zrotation Yrotation Xrotation
					JOINT right_shoulder
					{
						OFFSET -0.102578 0.053524 -0.012669
						CHANNELS 3 Zrotation Yrotation Xrotation
						JOINT right_elbow
						{
							OFFSET -0.271150 -0.036492 -0.026467
							CHANNELS 3 Zrotation Yrotation Xrotation
							JOINT right_wrist
							{
								OFFSET -0.249267 -0.004533 -0.015325
								CHANNELS 3 Zrotation Yrotation Xrotation
								JOINT right_index_1
								{
									OFFSET -0.099881 -0.011783 0.019600
									CHANNELS 3 Zrotation Yrotation Xrotation
									JOINT right_index_2
									{
										OFFSET -0.030148 -0.011154 0.001151
										CHANNELS 3 Zrotation Yrotation Xrotation
										JOINT right_index_3
										{
											OFFSET -0.006505 -0.021577 -0.002432
											CHANNELS 3 Zrotation Yrotation Xrotation
											End Site
											{
												OFFSET 0.000000 0.000000 0.000000
											}
										}
									}
								}
								JOINT right_middle_1
								{
									OFFSET -0.107376 -0.009422 -0.003734
									CHANNELS 3 Zrotation Yrotation Xrotation
									JOINT right_middle_2
									{
										OFFSET -0.026472 -0.015218 -0.004641
										CHANNELS 3 Zrotation Yrotation Xrotation
										JOINT right_middle_3
										{
											OFFSET -0.005022 -0.023347 -0.001911
											CHANNELS 3 Zrotation Yrotation Xrotation
											End Site
											{
												OFFSET 0.000000 0.000000 0.000000
											}
										}
									}
								}
								JOINT right_pinky_1
								{
									OFFSET -0.082027 -0.017634 -0.043503
									CHANNELS 3 Zrotation Yrotation Xrotation
									JOINT right_pinky_2
									{
										OFFSET -0.012123 -0.014448 -0.005374
										CHANNELS 3 Zrotation Yrotation Xrotation
										JOINT right_pinky_3
										{
											OFFSET -0.003798 -0.018852 0.000167
											CHANNELS 3 Zrotation Yrotation Xrotation
											End Site
											{
												OFFSET 0.000000 0.000000 0.000000
											}
										}
									}
								}
								JOINT right_ring_1
								{
									OFFSET -0.095423 -0.012362 -0.027099
									CHANNELS 3 Zrotation Yrotation Xrotation
									JOINT right_ring_2
									{
										OFFSET -0.023561 -0.016057 -0.001895
										CHANNELS 3 Zrotation Yrotation Xrotation
										JOINT right_ring_3
										{
											OFFSET -0.004257 -0.023548 0.000816
											CHANNELS 3 Zrotation Yrotation Xrotation
											End Site
											{
												OFFSET 0.000000 0.000000 0.000000
											}
										}
									}
								}
								JOINT right_thumb_1
								{
									OFFSET -0.038613 -0.021074 0.025861
									CHANNELS 3 Zrotation Yrotation Xrotation
									JOINT right_thumb_2
									{
										OFFSET -0.021636 -0.017639 0.011623
										CHANNELS 3 Zrotation Yrotation Xrotation
										JOINT right_thumb_3
										{
											OFFSET -0.024004 -0.008353 0.006547
											CHANNELS 3 Zrotation Yrotation Xrotation
											End Site
											{
												OFFSET 0.000000 0.000000 0.000000
											}
										}
									}
								}
							}
						}
					}
				}
			}
		}
	}
}
MOTION
Frames: 6
Frame Time: 0.050000
0.129112 0.931108 0.991821 -159.526210 -67.441926 152.453329 -3.663641 3.287363 -13.782144 35.992865 8.443383 36.558776 -99.112044 1.272331 30.818154 0.000000 0.000000 0.000000 11.045778 2.647384 16.192695 -13.745141 2.018260 -8.595867 -33.952403 -2.182884 39.348537 0.000000 0.000000 0.000000 -3.352781 0.940246 14.251860 13.036810 5.980507 -26.833108 -25.887215 -42.166207 43.875576 6.114925 7.696522 9.226404 0.000000 0.000000 0.000000 6.328009 15.511643 71.433689 112.257243 -85.233750 -91.324935 12.583202 -19.017290 -0.285292 12.179769 -9.680956 -34.913830 -10.913044 10.488946 1.134629 -67.416073 -58.908108 3.782538 0.000000 0.000000 0.000000 -31.845609 -16.403445 1.083351 -40.601929 -32.743056 -28.786210 0.000000 0.000000 0.000000 1.839454 -38.704400 -41.486282 -14.032522 -12.016094 -22.694975 0.000000 0.000000 0.000000 -27.714589 -27.918769 -2.949031 -5.647014 -31.001825 -49.803714 0.000000 0.000000 0.000000 31.654944 13.800292 -1.729802 -20.689935 -3.384070 6.877026 0.000000 0.000000 0.000000 -14.890703 15.419023 -46.702100 38.439087 -32.271767 -39.466728 99.734934 22.173341 -19.332221 9.093938 -0.053352 55.323404 34.037122 -19.186976 -2.150784 -13.357111 -10.964762 28.425811 0.000000 0.000000 0.000000 40.708284 0.725301 -13.738080 68.787986 -34.526054 22.288654 0.000000 0.000000 0.000000 -101.512763 8.891538 -83.262188 -72.626368 -12.066240 -107.702858 0.000000 0.000000 0.000000 14.147387 54.410938 -7.037182 103.831747 44.464458 -5.825738 0.000000 0.000000 0.000000 -15.845979 -40.250140 43.907096 -6.082261 24.924644 -11.504813 0.000000 0.000000 0.000000 
0.135708 0.936749 0.986542 -151.411725 -73.736354 145.399444 -3.676063 2.832553 -14.132569 32.904224 5.538012 31.878208 -98.087144 1.295448 32.226024 0.000000 0.000000 0.000000 13.711197 1.960306 16.963104 -16.764541 2.564732 -11.037402 -33.649667 -4.266286 46.209173 0.000000 0.000000 0.000000 -2.911974 0.552519 13.987680 13.794797 5.576844 -30.172033 -28.741732 -43.751239 48.148552 5.565563 8.855953 11.413149 0.000000 0.000000 0.000000 9.458465 10.734905 83.780834 118.792635 -78.949812 -96.327037 27.653205 -9.895000 -2.351193 7.817059 -13.645081 -38.041925 -6.278233 -1.308940 0.536660 -69.430144 -50.087061 11.297011 0.000000 0.000000 0.000000 -26.050635 -15.052057 -0.554290 -58.398302 -33.506875 -21.569040 0.000000 0.000000 0.000000 -17.876069 -36.307602 -28.157066 -38.055728 -9.255103 -15.393105 0.000000 0.000000 0.000000 -26.833429 -25.831642 -2.868225 -38.931255 -34.810405 -30.335486 0.000000 0.000000 0.000000 32.638605 9.074996 -4.481699 -21.833630 0.346034 8.774166 0.000000 0.000000 0.000000 -17.802849 8.621543 -55.722540 37.937437 -46.096466 -45.271853 108.084497 9.790956 -30.389756 2.112869 1.364829 51.002911 24.605296 -22.138074 1.535713 -29.206948 2.916565 28.573705 0.000000 0.000000 0.000000 11.898137 -1.811762 -2.254267 52.043444 -24.074746 45.104465 0.000000 0.000000 0.000000 -82.621708 9.397298 -45.017988 -85.249972 0.245828 0.498919 0.000000 0.000000 0.000000 -22.561181 13.145383 -13.786774 156.457393 55.629891 33.570409 0.000000 0.000000 0.000000 -27.100996 -41.665216 47.792143 6.298887 22.858628 -4.123675 0.000000 0.000000 0.000000 
0.139477 0.936266 0.975983 -157.286900 -72.176012 151.510663 -2.238702 2.952225 -12.541123 28.191188 5.180300 29.486589 -97.159830 -2.358444 28.266215 0.000000 0.000000 0.000000 10.118692 2.318019 15.709338 -11.403172 2.412994 -10.476972 -35.816622 -3.467445 42.752063 0.000000 0.000000 0.000000 -5.395058 1.782242 13.005315 16.805825 7.250624 -27.687191 -26.931561 -42.637491 42.793455 10.078956 9.695956 14.433458 0.000000 0.000000 0.000000 5.772628 9.086865 70.715912 -130.242345 -88.456746 138.607898 22.596696 -17.231632 -3.084028 8.241088 -15.877303 -33.471802 -12.997880 4.698460 0.942466 -75.604901 -28.472322 2.516055 0.000000 0.000000 0.000000 -31.209955 -7.704972 1.092548 -68.345474 -34.389410 -24.166491 0.000000 0.000000 0.000000 -12.047965 -37.506973 -37.144768 -40.425129 -31.548008 -40.481132 0.000000 0.000000 0.000000 -30.358912 -22.312107 -1.676827 -27.194053 -48.042534 -55.206056 0.000000 0.000000 0.000000 26.852534 9.334190 -4.138179 -16.614072 7.952356 12.677489 0.000000 0.000000 0.000000 -15.417910 7.011137 -49.851016 39.653619 -45.921232 -46.225948 110.303252 13.478101 -24.206012 1.672221 0.334012 50.970933 22.158448 -22.001359 2.455871 -34.862101 5.753205 24.392484 0.000000 0.000000 0.000000 6.530536 -1.409844 -0.774397 44.084290 -11.929001 53.246141 0.000000 0.000000 0.000000 -78.954946 10.930038 -45.206562 -44.351773 -0.264404 14.630477 0.000000 0.000000 0.000000 -26.910622 11.559075 -14.010017 171.972799 63.962624 47.419209 0.000000 0.000000 0.000000 -25.944691 -42.102634 46.997439 8.592146 20.401126 -2.502572 0.000000 0.000000 0.000000 
0.137592 0.935299 0.970703 -155.195860 -70.740616 149.598936 0.555858 3.534332 -10.760756 24.937502 4.614857 27.174152 -98.090190 -3.898977 25.606921 0.000000 0.000000 0.000000 9.788780 2.189490 14.992247 -8.183576 2.369731 -9.319098 -36.660137 -3.344737 40.737118 0.000000 0.000000 0.000000 -5.463495 1.975447 14.844446 16.189700 7.522771 -28.984013 -23.332970 -43.047248 43.492695 9.162622 8.362015 11.425463 0.000000 0.000000 0.000000 10.432756 7.434605 75.562930 171.869860 -85.064445 -156.294825 30.885547 -17.543922 -3.946980 12.319840 -6.467162 -33.991060 -8.643458 3.042017 0.740863 -66.983965 -49.022572 2.181669 0.000000 0.000000 0.000000 -21.829263 -13.472784 -2.008031 -43.880051 -47.215067 -48.166296 0.000000 0.000000 0.000000 14.803232 -28.415389 -44.402675 -22.164978 -29.317669 -49.913057 0.000000 0.000000 0.000000 -14.557356 -23.824890 -8.542840 -7.801651 -46.441010 -71.509909 0.000000 0.000000 0.000000 29.838856 19.006897 0.594194 -22.681701 -2.676382 7.379483 0.000000 0.000000 0.000000 -17.663971 5.095015 -49.926155 40.085723 -45.051194 -48.477698 110.395920 11.069350 -29.167328 3.471294 1.518357 52.495421 21.893343 -22.186868 2.052856 -41.651972 7.304614 16.270566 0.000000 0.000000 0.000000 3.567268 1.758015 -1.811109 4.595986 15.836088 44.235841 0.000000 0.000000 0.000000 -75.570171 10.266949 -46.628334 -33.721690 -0.525859 13.291667 0.000000 0.000000 0.000000 -27.618965 12.783644 -15.679518 1.655404 36.047358 46.339206 0.000000 0.000000 0.000000 -26.326683 -44.277729 47.914912 11.614030 19.613322 -1.094806 0.000000 0.000000 0.000000 
0.134766 0.932398 0.965424 -155.788987 -72.498048 149.930874 1.174553 3.145867 -9.120522 21.482165 3.966948 24.980557 -98.060227 -6.005404 24.829208 0.000000 0.000000 0.000000 9.190402 2.168728 14.835171 -7.915637 1.892258 -7.973855 -38.962938 -3.403092 40.951482 0.000000 0.000000 0.000000 -5.017084 1.739462 15.586032 11.793545 4.042381 -29.080215 -19.773605 -43.703622 42.791394 9.033354 8.387664 11.081100 0.000000 0.000000 0.000000 8.632002 10.352681 70.612029 -124.811665 -85.983843 136.531698 30.989700 -23.063964 -4.370431 11.104575 -8.010843 -32.168926 -25.238211 6.491214 1.489239 -71.965170 -15.253435 -2.520538 0.000000 0.000000 0.000000 -42.617438 -15.011887 2.913376 -50.823192 -25.236478 -27.981407 0.000000 0.000000 0.000000 -4.957709 -35.121155 -40.398401 -56.225719 -22.734999 -25.486650 0.000000 0.000000 0.000000 -33.864336 -27.608114 -1.993395 -24.478240 -37.965175 -46.500702 0.000000 0.000000 0.000000 23.172366 19.001507 0.819031 -17.391035 -6.043916 4.140667 0.000000 0.000000 0.000000 -16.594987 7.791768 -48.193429 41.541432 -41.203656 -47.620373 109.013111 15.986997 -22.486976 7.588538 4.845659 57.971635 28.030606 -21.251826 -0.526605 -27.448214 2.359853 21.898192 0.000000 0.000000 0.000000 13.663827 3.094948 -5.185264 42.787619 -14.381354 31.242795 0.000000 0.000000 0.000000 -76.475679 8.506309 -51.596811 -38.555994 -0.877420 7.567794 0.000000 0.000000 0.000000 -22.544893 17.932491 -19.623832 134.515292 60.317498 28.406075 0.000000 0.000000 0.000000 -16.670551 -47.003038 46.309576 5.994626 21.266862 -4.196155 0.000000 0.000000 0.000000 
0.134766 0.933043 0.970703 -156.525210 -72.583506 149.488288 0.981537 2.631144 -7.421735 20.418019 3.889693 24.301735 -96.739263 -7.178239 24.112708 0.000000 0.000000 0.000000 7.369233 2.957562 15.596142 -5.351233 1.965725 -7.239807 -39.203309 -4.263806 40.917684 0.000000 0.000000 0.000000 -5.008999 1.678720 15.631291 11.822433 3.657912 -27.831105 -18.327168 -42.810573 43.326513 8.070114 7.105377 9.224346 0.000000 0.000000 0.000000 7.740697 9.948938 65.805289 -94.175774 -83.526518 102.831735 33.992315 -26.936105 -5.183474 10.524531 -6.643740 -33.993707 -34.738119 12.423914 -1.444205 -77.585310 -0.339192 5.669143 0.000000 0.000000 0.000000 -64.870435 -11.340538 8.071519 -47.844978 -16.806527 -29.404349 0.000000 0.000000 0.000000 -41.779067 -48.515278 -30.687247 -41.086871 -6.761242 -11.890022 0.000000 0.000000 0.000000 -58.200117 -34.026696 6.927872 -26.874548 -32.374400 -41.900558 0.000000 0.000000 0.000000 20.396760 17.972129 0.604114 -13.036599 -0.993921 8.285664 0.000000 0.000000 0.000000 -15.852822 7.671184 -45.687453 42.941657 -38.809563 -47.248132 110.601351 21.788799 -13.093706 9.964205 6.525612 61.052276 27.750853 -17.920044 -1.033734 -23.261062 0.947726 21.488491 0.000000 0.000000 0.000000 11.548510 4.961891 -5.540061 44.034870 -14.608383 20.739645 0.000000 0.000000 0.000000 -74.914721 8.502302 -49.055745 -42.181787 -0.267603 -1.872483 0.000000 0.000000 0.000000 -21.214943 18.113308 -19.217090 112.193177 55.214242 14.043007 0.000000 0.000000 0.000000 -10.397464 -45.547190 42.355393 3.170594 21.666543 -5.601613 0.000000 0.000000 0.000000 
